<svg width="240" height="200" viewBox="0 0 240 200" fill="none" xmlns="http://www.w3.org/2000/svg" stroke-linejoin="round" stroke-linecap="round">
  <!-- behind: ear, legs, tail -->
  <path d="M80 62 L62 82 L94 86 Z" fill="#FDDA24" stroke="#0a0a0a" stroke-width="7"/>
  <g fill="#FDDA24" stroke="#0a0a0a" stroke-width="7">
    <rect x="70" y="150" width="16" height="30" rx="7"/>
    <rect x="100" y="154" width="16" height="28" rx="7"/>
    <rect x="146" y="154" width="16" height="28" rx="7"/>
    <rect x="174" y="150" width="16" height="30" rx="7"/>
  </g>
  <path d="M198 108 c 16 -4 18 14 4 17 c -9 2 -11 -11 -2 -13" fill="none" stroke="#0a0a0a" stroke-width="7"/>
  <!-- body -->
  <ellipse cx="124" cy="118" rx="80" ry="56" fill="#FDDA24" stroke="#0a0a0a" stroke-width="7"/>
  <!-- snout -->
  <ellipse cx="52" cy="124" rx="19" ry="23" fill="#FDDA24" stroke="#0a0a0a" stroke-width="7"/>
  <ellipse cx="47" cy="124" rx="3" ry="6" fill="#0a0a0a"/>
  <ellipse cx="58" cy="124" rx="3" ry="6" fill="#0a0a0a"/>
  <!-- eye -->
  <circle cx="78" cy="100" r="5" fill="#0a0a0a"/>
  <!-- coin slot on the back -->
  <rect x="104" y="60" width="50" height="12" rx="6" fill="#0a0a0a"/>
  <!-- coins dropping in -->
  <g font-family="'Space Grotesk',Arial,sans-serif" font-weight="700" text-anchor="middle">
    <circle cx="128" cy="30" r="13" fill="#0a0a0a"/><text x="128" y="35.5" font-size="15" fill="#FDDA24">$</text>
    <circle cx="156" cy="20" r="11" fill="#0a0a0a"/><text x="156" y="25" font-size="13" fill="#FDDA24">$</text>
  </g>
</svg>
